# xmcd CD database file
#
# Track frame offsets:
#	150
#	10725
#	24225
#	34125
#	53400
#	62025
#	69825
#	83175
#	97800
#	114975
#	134475
#	143700
#	157425
#	165075
#	174900
#	195525
#	204600
#	215025
#	231975
#	240450
#	248775
#	259425
#	268575
#	281625
#	292575
#	306750
#	319500
#
# Disc length: 4481 seconds
#
# Revision: 3
# Processed by: cddbd v1.5PL3 Copyright (c) Steve Scherf et al.
# Submitted via: CDex 1.51
#
DISCID=71117f1b
DTITLE=Bartok - Works for Piano Solo 3 - For Children (1908-09), Zoltán Kocsis
DYEAR=1900
DGENRE=Piano
TTITLE0=Vol. 1 - 1. Allegro, 2. Andante, 3. Quasi adagio
TTITLE1=4. Allegro, 5. Allegretto, 6. Allegro
TTITLE2=7. Andante gracioso, 8. Allegretto
TTITLE3=9. Adagio, 10. Allegro molto, 11. Lento, 12. Allegro
TTITLE4=13. Andante, 14. Allegretto, 15. Allegro moderato
TTITLE5=16. Andante rubato, 17. Lento
TTITLE6=18. Andante non troppo, 19. Allegretto, 20. Allegro, 21. Allegro robusto
TTITLE7=Vol.2 - 22. Allegretto, 23. Allegro grazioso, 24. Andante sostenuto, 25. Parlando
TTITLE8=26. Moderato, 27. Allegramente (Jest), 28. Andante (Choral), 29. Allegro scherzando
TTITLE9=30. Allegro ironico, 31. Andante tranquillo, 32. Andante, 33. Allegro non troppo
TTITLE10=34. Allegretto, 35. Con moto, 36. Vivace (Drunkard's Song), 37. Allegro (Swineherd's Song)
TTITLE11=38. Molto vivace, 39. Allegro moderato
TTITLE12=40. Allegro vivace
TTITLE13=Vol 3 - 1. Allegro, 2. Andante, 3. Allegretto, 4. Andante (Wedding Song)
TTITLE14=5. Molto andante (Variations), 6. Allegro (Round Dance 1), 7. Andante (Sorrow), 8. Allegro non troppo
TTITLE15=9. Andante (Round Dance 2), 10. Largo (Funeral Song)
TTITLE16=11. Lento, 12. Andante rubato, 13. Allegro
TTITLE17=14. Moderato, 15. Molto tranquillo (Bagpipe 1), 16. Lento (Lament), 17. Andante, 18. Sostenuto (Teasing Song)
TTITLE18=19. Assai lento (Romance), 20. Presto (Game of Tag)
TTITLE19=21. Allegro moderato (Pleasantry), 22.  Molto allegro (Revelry)
TTITLE20=Vol 4 - 23. Andante tranquillo, 24. Andante, 25. Allegretto (Scherzando)
TTITLE21=26. Andante molto rubato (Peasant's Flute), 27. Allegro (Pleasantry 2)
TTITLE22=28. Andante, molto rubato, 29. Allegro non troppo (Canon), 30. Vivace (Bagpipe 2)
TTITLE23=31. Allegro (Highway Robber), 32. Pesante, 33. Andante tranquillo
TTITLE24=34. Adagio (Farewell), 35. Moderato (ballad)
TTITLE25=36-37. Parlando, molto rubato, Allegro moderato (Rhapsody)
TTITLE26=38. Lento (Dirge), 39. Lento (Mourning Song)
EXTD=
EXTT0=
EXTT1=
EXTT2=
EXTT3=
EXTT4=
EXTT5=
EXTT6=
EXTT7=
EXTT8=
EXTT9=
EXTT10=
EXTT11=
EXTT12=
EXTT13=
EXTT14=
EXTT15=
EXTT16=
EXTT17=
EXTT18=
EXTT19=
EXTT20=
EXTT21=
EXTT22=
EXTT23=
EXTT24=
EXTT25=
EXTT26=
PLAYORDER=
